<svg xmlns="http://www.w3.org/2000/svg" xmlns:xlink="http://www.w3.org/1999/xlink" version="1.1" width="1000" height="1000" viewBox="0 0 1000 1000" xml:space="preserve">
<desc>Created with Fabric.js 3.5.0</desc>
<defs>
</defs>
<rect x="0" y="0" width="100%" height="100%" fill="#ffffff"/>
<g transform="matrix(3.3468 0 0 3.3468 499.9946 499.9946)" id="457001">
<g style="" vector-effect="non-scaling-stroke">
		<g transform="matrix(1 0 0 1 -0.0001 0.0002)" id="Capa_1">
<path style="stroke: none; stroke-width: 1; stroke-dasharray: none; stroke-linecap: butt; stroke-dashoffset: 0; stroke-linejoin: miter; stroke-miterlimit: 4; is-custom-font: none; font-file-url: none; fill: rgb(0,0,0); fill-rule: nonzero; opacity: 1;" transform=" translate(-148.2384, -148.2386)" d="M 244.63 35.621 c -21.771 -18.635 -47.382 -29.855 -73.767 -33.902 C 121.871 -5.797 70.223 11.421 35.622 51.847 c -53.236 62.198 -45.972 155.773 16.226 209.01 c 21.771 18.634 47.381 29.853 73.766 33.901 c 48.991 7.517 100.641 -9.703 135.241 -50.13 C 314.091 182.431 306.826 88.856 244.63 35.621 z M 273.361 191.241 l -45.305 -15.618 c 6.102 -17.803 6.028 -37.107 0.014 -54.724 l 45.257 -15.575 c 3.577 10.453 5.862 21.429 6.74 32.741 C 281.489 156.374 279.152 174.388 273.361 191.241 z M 275.905 104.058 c 0 -0.003 0 -0.005 0 -0.008 C 275.905 104.053 275.905 104.055 275.905 104.058 z M 247.935 61.472 l -36.069 31.332 c -2.669 -3.055 -5.579 -5.961 -8.752 -8.677 c -11.467 -9.814 -24.81 -15.995 -38.637 -18.692 l 9.095 -46.741 c 22.33 4.33 43.21 14.294 60.635 29.209 C 239.147 52.131 243.728 56.669 247.935 61.472 z M 103.251 23.983 c 6.428 -2.315 13.021 -4.109 19.71 -5.388 l 9.087 46.843 c -17.789 3.467 -34.584 12.651 -47.393 27.341 L 48.55 61.38 C 63.334 44.416 82.206 31.568 103.251 23.983 z M 23.124 105.236 l 45.297 15.617 c -6.102 17.803 -6.028 37.105 -0.015 54.723 l -45.295 15.588 c -3.562 -10.441 -5.837 -21.4 -6.713 -32.688 C 14.976 140.151 17.32 122.11 23.124 105.236 z M 48.467 235.066 l 36.145 -31.395 c 2.669 3.056 5.58 5.964 8.754 8.68 c 11.466 9.814 24.808 15.993 38.634 18.691 l -9.143 46.997 c -22.325 -4.348 -43.185 -14.422 -60.604 -29.333 C 57.288 244.458 52.689 239.898 48.467 235.066 z M 193.203 272.635 c -6.409 2.309 -12.986 4.11 -19.658 5.403 l -9.117 -47 c 17.789 -3.467 34.585 -12.651 47.394 -27.342 l 36.121 31.409 C 233.154 252.087 214.257 265.047 193.203 272.635 z" stroke-linecap="round"/>
</g>
		<g transform="matrix(1 0 0 1 -54.8665 -94.7405)" id="Capa_1">
<circle style="stroke: none; stroke-width: 1; stroke-dasharray: none; stroke-linecap: butt; stroke-dashoffset: 0; stroke-linejoin: miter; stroke-miterlimit: 4; is-custom-font: none; font-file-url: none; fill: rgb(0,0,0); fill-rule: nonzero; opacity: 1;" cx="0" cy="0" r="8"/>
</g>
		<g transform="matrix(1 0 0 1 -109.4805 0.1435)" id="Capa_1">
<circle style="stroke: none; stroke-width: 1; stroke-dasharray: none; stroke-linecap: butt; stroke-dashoffset: 0; stroke-linejoin: miter; stroke-miterlimit: 4; is-custom-font: none; font-file-url: none; fill: rgb(0,0,0); fill-rule: nonzero; opacity: 1;" cx="0" cy="0" r="8"/>
</g>
		<g transform="matrix(1 0 0 1 -54.6155 94.8845)" id="Capa_1">
<circle style="stroke: none; stroke-width: 1; stroke-dasharray: none; stroke-linecap: butt; stroke-dashoffset: 0; stroke-linejoin: miter; stroke-miterlimit: 4; is-custom-font: none; font-file-url: none; fill: rgb(0,0,0); fill-rule: nonzero; opacity: 1;" cx="0" cy="0" r="8"/>
</g>
		<g transform="matrix(1 0 0 1 54.8665 94.7385)" id="Capa_1">
<circle style="stroke: none; stroke-width: 1; stroke-dasharray: none; stroke-linecap: butt; stroke-dashoffset: 0; stroke-linejoin: miter; stroke-miterlimit: 4; is-custom-font: none; font-file-url: none; fill: rgb(0,0,0); fill-rule: nonzero; opacity: 1;" cx="0" cy="0" r="8.001"/>
</g>
		<g transform="matrix(1 0 0 1 109.4785 -0.1475)" id="Capa_1">
<circle style="stroke: none; stroke-width: 1; stroke-dasharray: none; stroke-linecap: butt; stroke-dashoffset: 0; stroke-linejoin: miter; stroke-miterlimit: 4; is-custom-font: none; font-file-url: none; fill: rgb(0,0,0); fill-rule: nonzero; opacity: 1;" cx="0" cy="0" r="8"/>
</g>
		<g transform="matrix(1 0 0 1 54.6145 -94.8875)" id="Capa_1">
<circle style="stroke: none; stroke-width: 1; stroke-dasharray: none; stroke-linecap: butt; stroke-dashoffset: 0; stroke-linejoin: miter; stroke-miterlimit: 4; is-custom-font: none; font-file-url: none; fill: rgb(0,0,0); fill-rule: nonzero; opacity: 1;" cx="0" cy="0" r="8"/>
</g>
</g>
</g>
<g transform="matrix(1 0 0 1 500 500)" style="" id="831043">
		
<path xml:space="preserve" font-family="Acme" font-size="400" font-style="normal" font-weight="normal" style="stroke: none; stroke-width: 1; stroke-dasharray: none; stroke-linecap: butt; stroke-dashoffset: 0; stroke-linejoin: miter; stroke-miterlimit: 4; is-custom-font: none; font-file-url: none; fill: rgb(255,255,255); fill-rule: nonzero; opacity: 1; white-space: pre;" d="M-75.40-96.74L36.20-134.34L30.20 21.66L35.00 125.66L-21.00 125.66L-16.20 28.46L-19.40-71.14L-75.40-70.74L-75.40-96.74Z"/></g>
</svg>